<svg width="16" height="16" viewBox="0 0 16 16" fill="none" xmlns="http://www.w3.org/2000/svg">
<g clip-path="url(#clip0_45220_400)">
<path fill-rule="evenodd" clip-rule="evenodd" d="M7.99219 10C9.09676 10 9.99219 9.10457 9.99219 8C9.99219 6.89543 9.09676 6 7.99219 6C6.88762 6 5.99219 6.89543 5.99219 8C5.99219 9.10457 6.88762 10 7.99219 10Z" stroke="black" stroke-width="1.5"/>
<path d="M8.03906 5.99495V5.33594" stroke="black" stroke-width="1.5" stroke-linecap="square"/>
<path d="M10.0197 10.0076L9.42041 9.46769" stroke="black" stroke-width="1.5" stroke-linecap="square"/>
<path d="M5.92969 10.0241L6.59635 9.45117" stroke="black" stroke-width="1.5" stroke-linecap="square"/>
<path d="M5.99666 5.9082L6.58797 6.58252" stroke="black" stroke-width="1.5" stroke-linecap="square"/>
<path d="M10.0041 5.99333L9.42041 6.59912" stroke="black" stroke-width="1.5" stroke-linecap="square"/>
<path d="M10.6745 8.01367H10.0078" stroke="black" stroke-width="1.5" stroke-linecap="square"/>
<path d="M5.99008 8.00586H5.32617" stroke="black" stroke-width="1.5" stroke-linecap="square"/>
<path d="M8.04622 10.6609V10.0019" stroke="black" stroke-width="1.5" stroke-linecap="square"/>
<circle cx="12.666" cy="3.33789" r="2" stroke="black" stroke-width="1.5"/>
<circle cx="3.31836" cy="3.33789" r="2" stroke="black" stroke-width="1.5"/>
<circle cx="3.31836" cy="12.6699" r="2" stroke="black" stroke-width="1.5"/>
<circle cx="12.6523" cy="12.6699" r="2" stroke="black" stroke-width="1.5"/>
<path d="M7.30195 2.66602H8.74137M2.66602 7.2237V8.43677M13.3327 7.2237V8.43677M8.74137 13.3327H7.30195" stroke="black" stroke-width="1.5" stroke-linecap="round"/>
</g>
<defs>
<clipPath id="clip0_45220_400">
<rect width="16" height="16" fill="white"/>
</clipPath>
</defs>
</svg>
